#!OML:ASF C:\ViconDB\ViconDB\414\Spring2016\041811\Spring2016.ASF
:FULLY-SPECIFIED
:DEGREES
538
root 7.77334 17.7006 -50.674 -181.461 -13.7618 -166.399
lowerback -4.06818 0.707624 -2.73434
upperback -1.57093 0.998199 0.232254
thorax 0.615034 0.487145 1.81599
lowerneck -4.18556 -2.29216 -8.17141
upperneck 23.9566 -14.7497 28.5206
head 11.3779 -7.22778 10.3158
rclavicle -6.30147e-014 5.08889e-014
rhumerus -94.2755 33.7401 -127.491
rradius 86.654
rwrist 20.1251
rhand -45.8669 -6.06538
rfingers 7.12502
rthumb -18.6177 -35.1944
lclavicle -6.30147e-014 5.08889e-014
lhumerus -82.593 -41.4559 115.775
lradius 80.0664
lwrist -30.7532
lhand -39.9553 -3.9913
lfingers 7.12502
lthumb -12.9247 25.5884
rfemur 319.016 -591.093 16.2508
rtibia 29.6524
rfoot -429.96 -49.5488
rtoes 1.90833e-013
lfemur -40.1135 -7.91453 0.352805
ltibia 28.0678
lfoot -9.05395 1.84452
ltoes 2.57625e-013
539
root 7.71458 17.7138 -50.8692 -181.189 -13.4425 -166.856
lowerback -4.56001 0.719739 -3.17571
upperback -1.43853 1.05186 0.0483686
thorax 1.01779 0.506011 1.88611
lowerneck -4.06112 -2.20007 -8.46446
upperneck 23.578 -14.721 29.17
head 11.2928 -7.26318 10.6514
rclavicle -3.43897e-014 4.77083e-015
rhumerus -93.8711 33.9144 -127.416
rradius 86.4383
rwrist 20.3211
rhand -45.9939 -6.20619
rfingers 7.12502
rthumb -18.7399 -35.3235
lclavicle -3.43897e-014 4.77083e-015
lhumerus -81.6066 -41.3076 114.735
lradius 80.1061
lwrist -31.0689
lhand -39.644 -4.08756
lfingers 7.12502
lthumb -12.6246 25.5109
rfemur 319.8 -588.995 16.3909
rtibia 28.7836
rfoot -427.979 -50.0829
rtoes -1.39944e-013
lfemur -40.321 -9.46271 0.569157
ltibia 28.6186
lfoot -7.51613 1.71474
ltoes -9.22361e-014
540
root 7.65931 17.737 -51.0715 -180.937 -13.3646 -167.391
lowerback -5.09378 0.629978 -3.79064
upperback -1.26555 0.987731 -0.132943
thorax 1.48938 0.461595 2.05082
lowerneck -2.42481 -1.60142 -10.9892
upperneck 21.3661 -14.4825 33.1986
head 10.6748 -7.64376 13.0369
rclavicle -7.65321e-015 -1.59028e-015
rhumerus -93.3726 34.2557 -127.311
rradius 86.1871
rwrist 20.1597
rhand -46.1183 -6.57328
rfingers 7.12502
rthumb -18.8595 -35.679
lclavicle -7.65321e-015 -1.59028e-015
lhumerus -80.5771 -41.0339 113.623
lradius 80.1498
lwrist -31.0902
lhand -39.0744 -4.65461
lfingers 7.12502
lthumb -12.0754 24.977
rfemur 320.799 -586.419 16.8514
rtibia 27.9574
rfoot -424.437 -51.4076
rtoes 5.40694e-014
lfemur -40.4999 -10.9197 0.553762
ltibia 29.1378
lfoot -5.82428 1.28456
ltoes 7.4743e-014
541
root 7.60598 17.7504 -51.2756 -180.715 -13.3769 -167.819
lowerback -5.50847 0.685718 -4.15857
upperback -1.08683 1.10886 -0.364702
thorax 1.8948 0.509255 2.03436
lowerneck -4.19283 -2.35859 -8.82369
upperneck 23.2966 -15.1019 29.7466
head 11.4171 -7.47575 10.9157
rclavicle 5.68524e-014 1.59028e-014
rhumerus -92.417 34.0113 -126.693
rradius 85.8812
rwrist 20.4715
rhand -46.1147 -6.6897
rfingers 7.12502
rthumb -18.856 -35.7958
lclavicle 5.68524e-014 1.59028e-014
lhumerus -79.9017 -41.4303 112.987
lradius 80.1923
lwrist -31.3645
lhand -38.6497 -4.61703
lfingers 7.12502
lthumb -11.6659 25.0382
rfemur 321.467 -584.129 17.235
rtibia 27.3824
rfoot -421.274 -52.2164
rtoes -2.06736e-013
lfemur -40.5226 -11.235 0.0134093
ltibia 29.6318
lfoot -3.61165 -0.19653
ltoes -2.38542e-014
542
root 7.5417 17.7565 -51.4673 -180.451 -13.1813 -168.236
lowerback -5.35868 0.767062 -4.45
upperback -1.38941 1.20495 -0.536382
thorax 1.48971 0.56266 2.02117
lowerneck -4.2085 -1.86424 -6.90425
upperneck 24.2361 -13.6792 27.2389
head 10.993 -6.59028 9.63978
rclavicle -7.85199e-015 -7.63333e-014
rhumerus -92.2605 33.4572 -126.455
rradius 85.519
rwrist 21.1928
rhand -46.1925 -6.69257
rfingers 7.12502
rthumb -18.9308 -35.7913
lclavicle -7.85199e-015 -7.63333e-014
lhumerus -79.9899 -41.1483 112.746
lradius 80.4631
lwrist -31.3541
lhand -38.0231 -5.03022
lfingers 7.12502
lthumb -11.0615 24.6583
rfemur 322.115 -581.807 17.5252
rtibia 26.8189
rfoot -418.713 -53.1286
rtoes -1.78111e-013
lfemur -40.4762 -10.9717 -0.785669
ltibia 30.3583
lfoot -2.11957 -1.4713
ltoes 1.60618e-013
543
root 7.48183 17.7633 -51.6647 -180.222 -13.1323 -168.647
lowerback -7.91798 0.626773 -4.56436
upperback 0.20261 1.25615 -0.82369
thorax 4.57672 0.506051 1.85379
lowerneck -5.34303 -1.98683 -6.66166
upperneck 23.5437 -13.4251 27.231
head 10.9025 -6.3028 9.54399
rclavicle -6.98911e-015 -3.81667e-014
rhumerus -89.4217 34.8073 -125.117
rradius 85.1093
rwrist 21.4277
rhand -46.0143 -6.48426
rfingers 7.12502
rthumb -18.7595 -35.5997
lclavicle -6.98911e-015 -3.81667e-014
lhumerus -76.7434 -42.1375 110.159
lradius 80.5542
lwrist -31.306
lhand -37.6501 -5.22491
lfingers 7.12502
lthumb -10.7017 24.4825
rfemur 322.546 -579.631 17.7911
rtibia 26.4715
rfoot -415.689 -54.2772
rtoes -2.25819e-013
lfemur -40.4669 -10.7955 -1.52692
ltibia 31.1996
lfoot -1.06965 -2.46481
ltoes 1.04958e-013
